<svg width="20" height="20" viewBox="0 0 20 20" fill="none" xmlns="http://www.w3.org/2000/svg">
  <g clip-path="url(#clip0_247_970)">
    <path
      d="M15.0001 0H5.00037C2.25067 0 0.000488281 2.25019 0.000488281 4.99988V15.0001C0.000488281 17.7491 2.25067 20 5.00037 20H15.0001C17.7498 20 20 17.7491 20 15.0001V4.99988C20 2.25019 17.7498 0 15.0001 0ZM18.3333 15.0001C18.3333 16.8375 16.8386 18.3333 15.0001 18.3333H5.00037C3.16267 18.3333 1.6672 16.8375 1.6672 15.0001V4.99988C1.6672 3.16193 3.16267 1.66671 5.00037 1.66671H15.0001C16.8386 1.66671 18.3333 3.16193 18.3333 4.99988V15.0001Z"
      fill="#121212" />
    <path
      d="M15.4174 5.83295C16.1077 5.83295 16.6674 5.27331 16.6674 4.58297C16.6674 3.89263 16.1077 3.33301 15.4174 3.33301C14.7271 3.33301 14.1675 3.89263 14.1675 4.58297C14.1675 5.27331 14.7271 5.83295 15.4174 5.83295Z"
      fill="#121212" />
    <path
      d="M9.99988 5C7.23793 5 5 7.23818 5 9.99988C5 12.7606 7.23793 15.0002 9.99988 15.0002C12.7611 15.0002 14.9998 12.7606 14.9998 9.99988C14.9998 7.23818 12.7611 5 9.99988 5ZM9.99988 13.3335C8.15915 13.3335 6.66671 11.8411 6.66671 9.99988C6.66671 8.15866 8.15915 6.66671 9.99988 6.66671C11.8406 6.66671 13.3331 8.15866 13.3331 9.99988C13.3331 11.8411 11.8406 13.3335 9.99988 13.3335Z"
      fill="#121212" />
  </g>
  <defs>
    <clipPath id="clip0_247_970">
      <rect width="20" height="20" fill="white" />
    </clipPath>
  </defs>
</svg>