<svg width="25" height="25" viewBox="0 0 25 25" fill="none" xmlns="http://www.w3.org/2000/svg">
  <path
    d="M22.4751 6.3C21.7251 6.625 20.9501 6.85 20.1251 6.95C20.9751 6.45 21.6251 5.65 21.9251 4.675C21.1251 5.15 20.2501 5.475 19.3251 5.675C18.5751 4.875 17.5001 4.375 16.3251 4.375C14.0501 4.375 12.2251 6.225 12.2251 8.475C12.2251 8.8 12.2501 9.1 12.3251 9.4C8.9251 9.25 5.9251 7.6 3.9001 5.125C2.4501 7.725 4.0751 9.875 5.1501 10.6C4.5001 10.6 3.8501 10.4 3.3001 10.1C3.3001 12.125 4.7251 13.8 6.5751 14.175C6.1751 14.3 5.2751 14.375 4.7251 14.25C5.2501 15.875 6.7751 17.075 8.5501 17.1C7.1501 18.2 5.1001 19.075 2.4751 18.8C4.3001 19.975 6.4501 20.65 8.7751 20.65C16.3251 20.65 20.4251 14.4 20.4251 9C20.4251 8.825 20.4251 8.65 20.4001 8.475C21.2501 7.85 21.9501 7.125 22.4751 6.3Z"
    fill="#121212" />
</svg>