<?xml version="1.0" encoding="UTF-8" standalone="no"?>
<!DOCTYPE svg PUBLIC "-//W3C//DTD SVG 1.1//EN" "http://www.w3.org/Graphics/SVG/1.1/DTD/svg11.dtd">
<svg width="100%" height="100%" viewBox="0 0 2006 402" version="1.1" xmlns="http://www.w3.org/2000/svg" xmlns:xlink="http://www.w3.org/1999/xlink" xml:space="preserve" xmlns:serif="http://www.serif.com/" style="fill-rule:evenodd;clip-rule:evenodd;stroke-linejoin:round;stroke-miterlimit:2;">
    <g transform="matrix(1,0,0,1,-49571.8,-6347.82)">
        <g transform="matrix(1,0,0,1,48824.5,4886.88)">
            <g transform="matrix(1.28631,0,0,1.28631,986.235,1797.42)">
                <path d="M0,-218.055C26.318,-226.261 51.866,-230.343 74.077,-230.343C98.118,-230.343 118.25,-225.557 131.187,-216.039C140.756,-209 145.406,-200.055 145.406,-188.692C145.406,-186.394 145.18,-184.015 144.791,-181.584C110.507,-203.197 53.584,-204.573 -9.265,-184.975C-69.507,-166.192 -121.803,-132.43 -153.516,-95.315C-144.791,-135.784 -85.334,-191.448 0,-218.055M-9.265,-56.068C-64.073,-38.981 -115.563,-39.773 -140.451,-58.086C-140.925,-58.435 -141.377,-58.792 -141.827,-59.15C-119.101,-94.743 -67.699,-134.144 0,-155.253C26.318,-163.458 51.866,-167.541 74.077,-167.541C98.118,-167.541 118.25,-162.754 131.187,-153.237C131.666,-152.885 132.099,-152.514 132.553,-152.152C109.822,-116.564 58.425,-77.172 -9.265,-56.068M-83.174,-12.531C-57.933,-12.531 -29.619,-17.112 0,-26.346C98.993,-57.211 176.536,-128.522 176.536,-188.692C176.536,-210.042 167.236,-228.169 149.635,-241.115C116.035,-265.836 56.632,-268.328 -9.265,-247.777C-108.257,-216.912 -185.799,-145.601 -185.799,-85.431C-185.799,-74.57 -183.38,-64.549 -178.697,-55.613C-183.318,-44.458 -185.799,-33.365 -185.799,-22.626C-185.799,-1.279 -176.499,16.848 -158.9,29.794C-140.402,43.403 -114.093,50.273 -83.176,50.273C-57.935,50.273 -29.619,45.693 0,36.454C25.676,28.449 49.887,17.707 71.698,5.16L58.219,-22.912C38.331,-11.29 15.647,-1.032 -9.265,6.736C-64.068,23.82 -115.559,23.034 -140.451,4.718C-150.019,-2.319 -154.669,-11.264 -154.669,-22.626C-154.669,-24.926 -154.443,-27.306 -154.053,-29.738C-135.929,-18.313 -111.493,-12.531 -83.174,-12.531" style="fill:rgb(90,80,254);fill-rule:nonzero;"/>
            </g>
            <g transform="matrix(5.99812,0,0,5.99812,-2194.21,-4374.67)">
                <path d="M593.097,1023.2C589.855,1023.2 586.981,1022.51 584.474,1021.13C581.967,1019.74 580,1017.8 578.574,1015.29C577.148,1012.78 576.435,1009.89 576.435,1006.6C576.435,1003.28 577.137,1000.32 578.542,997.722C579.946,995.129 581.891,993.108 584.377,991.66C586.862,990.212 589.791,989.488 593.162,989.488C596.317,989.488 599.105,990.18 601.526,991.563C603.946,992.946 605.837,994.837 607.199,997.236C608.56,999.635 609.241,1002.3 609.241,1005.24C609.241,1005.72 609.23,1006.22 609.209,1006.73C609.187,1007.25 609.155,1007.79 609.111,1008.36L584.669,1008.36C584.841,1010.86 585.717,1012.83 587.294,1014.25C588.872,1015.68 590.785,1016.39 593.032,1016.39C594.718,1016.39 596.134,1016.02 597.279,1015.26C598.424,1014.5 599.278,1013.52 599.84,1012.31L608.269,1012.31C607.663,1014.34 606.659,1016.19 605.254,1017.85C603.849,1019.52 602.12,1020.83 600.067,1021.78C598.014,1022.73 595.691,1023.2 593.097,1023.2ZM593.162,996.231C591.13,996.231 589.337,996.804 587.781,997.949C586.225,999.094 585.23,1000.83 584.798,1003.17L600.813,1003.17C600.683,1001.05 599.905,999.365 598.478,998.111C597.052,996.858 595.28,996.231 593.162,996.231Z" style="fill-rule:nonzero;"/>
                <path d="M618.448,1022.42L606.648,990.266L615.336,990.266L623.505,1014.58L631.674,990.266L640.362,990.266L628.497,1022.42L618.448,1022.42Z" style="fill-rule:nonzero;"/>
                <path d="M654.496,1023.2C651.254,1023.2 648.38,1022.51 645.873,1021.13C643.366,1019.74 641.399,1017.8 639.973,1015.29C638.547,1012.78 637.833,1009.89 637.833,1006.6C637.833,1003.28 638.536,1000.32 639.941,997.722C641.345,995.129 643.29,993.108 645.776,991.66C648.261,990.212 651.189,989.488 654.561,989.488C657.716,989.488 660.504,990.18 662.925,991.563C665.345,992.946 667.236,994.837 668.598,997.236C669.959,999.635 670.64,1002.3 670.64,1005.24C670.64,1005.72 670.629,1006.22 670.608,1006.73C670.586,1007.25 670.554,1007.79 670.51,1008.36L646.067,1008.36C646.24,1010.86 647.116,1012.83 648.693,1014.25C650.271,1015.68 652.184,1016.39 654.431,1016.39C656.117,1016.39 657.532,1016.02 658.678,1015.26C659.823,1014.5 660.677,1013.52 661.239,1012.31L669.667,1012.31C669.062,1014.34 668.057,1016.19 666.653,1017.85C665.248,1019.52 663.519,1020.83 661.466,1021.78C659.413,1022.73 657.089,1023.2 654.496,1023.2ZM654.561,996.231C652.529,996.231 650.736,996.804 649.18,997.949C647.624,999.094 646.629,1000.83 646.197,1003.17L662.211,1003.17C662.082,1001.05 661.304,999.365 659.877,998.111C658.451,996.858 656.679,996.231 654.561,996.231Z" style="fill-rule:nonzero;"/>
                <path d="M672.455,1022.42L672.455,990.266L679.847,990.266L680.625,996.296C681.792,994.221 683.38,992.568 685.39,991.336C687.4,990.104 689.766,989.488 692.489,989.488L692.489,998.241L690.155,998.241C688.34,998.241 686.719,998.522 685.293,999.084C683.866,999.646 682.753,1000.62 681.954,1002C681.154,1003.38 680.754,1005.31 680.754,1007.77L680.754,1022.42L672.455,1022.42Z" style="fill-rule:nonzero;"/>
                <path d="M707.531,1023.2C704.678,1023.2 702.171,1022.74 700.01,1021.81C697.849,1020.88 696.12,1019.59 694.824,1017.95C693.527,1016.31 692.749,1014.41 692.489,1012.25L700.853,1012.25C701.113,1013.5 701.815,1014.57 702.96,1015.45C704.106,1016.34 705.586,1016.78 707.402,1016.78C709.217,1016.78 710.546,1016.42 711.389,1015.68C712.232,1014.95 712.653,1014.1 712.653,1013.15C712.653,1011.77 712.048,1010.83 710.838,1010.33C709.628,1009.84 707.942,1009.35 705.781,1008.87C704.397,1008.57 702.993,1008.2 701.566,1007.77C700.14,1007.34 698.832,1006.79 697.644,1006.12C696.455,1005.45 695.493,1004.58 694.759,1003.52C694.024,1002.47 693.656,1001.16 693.656,999.602C693.656,996.75 694.791,994.351 697.06,992.406C699.33,990.461 702.517,989.488 706.624,989.488C710.427,989.488 713.464,990.374 715.733,992.146C718.002,993.918 719.353,996.361 719.785,999.473L711.94,999.473C711.465,997.095 709.671,995.907 706.559,995.907C705.003,995.907 703.803,996.209 702.96,996.814C702.117,997.42 701.696,998.176 701.696,999.084C701.696,1000.03 702.323,1000.79 703.576,1001.35C704.83,1001.92 706.494,1002.43 708.569,1002.91C710.816,1003.43 712.88,1004 714.76,1004.63C716.641,1005.25 718.143,1006.18 719.266,1007.42C720.39,1008.65 720.952,1010.41 720.952,1012.7C720.995,1014.69 720.477,1016.48 719.396,1018.08C718.315,1019.68 716.759,1020.93 714.728,1021.84C712.696,1022.75 710.297,1023.2 707.531,1023.2Z" style="fill-rule:nonzero;"/>
                <path d="M738.717,1023.2C735.475,1023.2 732.601,1022.51 730.094,1021.13C727.587,1019.74 725.62,1017.8 724.194,1015.29C722.767,1012.78 722.054,1009.89 722.054,1006.6C722.054,1003.28 722.757,1000.32 724.161,997.722C725.566,995.129 727.511,993.108 729.997,991.66C732.482,990.212 735.41,989.488 738.782,989.488C741.937,989.488 744.725,990.18 747.145,991.563C749.566,992.946 751.457,994.837 752.819,997.236C754.18,999.635 754.861,1002.3 754.861,1005.24C754.861,1005.72 754.85,1006.22 754.828,1006.73C754.807,1007.25 754.774,1007.79 754.731,1008.36L730.288,1008.36C730.461,1010.86 731.336,1012.83 732.914,1014.25C734.492,1015.68 736.404,1016.39 738.652,1016.39C740.338,1016.39 741.753,1016.02 742.899,1015.26C744.044,1014.5 744.898,1013.52 745.46,1012.31L753.888,1012.31C753.283,1014.34 752.278,1016.19 750.873,1017.85C749.469,1019.52 747.74,1020.83 745.687,1021.78C743.634,1022.73 741.31,1023.2 738.717,1023.2ZM738.782,996.231C736.75,996.231 734.956,996.804 733.4,997.949C731.844,999.094 730.85,1000.83 730.418,1003.17L746.432,1003.17C746.303,1001.05 745.525,999.365 744.098,998.111C742.672,996.858 740.9,996.231 738.782,996.231Z" style="fill-rule:nonzero;"/>
                <path d="M756.676,1022.42L756.676,990.266L764.003,990.266L764.651,995.712C765.645,993.81 767.082,992.298 768.962,991.174C770.843,990.05 773.058,989.488 775.608,989.488C779.585,989.488 782.675,990.741 784.88,993.248C787.084,995.755 788.186,999.429 788.186,1004.27L788.186,1022.42L779.887,1022.42L779.887,1005.05C779.887,1002.28 779.325,1000.16 778.201,998.695C777.078,997.225 775.327,996.49 772.95,996.49C770.616,996.49 768.703,997.311 767.212,998.954C765.721,1000.6 764.975,1002.89 764.975,1005.83L764.975,1022.42L756.676,1022.42Z" style="fill-rule:nonzero;"/>
                <path d="M805.692,1023.2C802.666,1023.2 799.964,1022.47 797.587,1021C795.21,1019.53 793.33,1017.52 791.947,1014.97C790.563,1012.42 789.872,1009.52 789.872,1006.28C789.872,1003.04 790.563,1000.15 791.947,997.625C793.33,995.096 795.21,993.108 797.587,991.66C799.964,990.212 802.666,989.488 805.692,989.488C808.112,989.488 810.23,989.942 812.045,990.85C813.861,991.757 815.33,993.032 816.454,994.675L816.454,975.743L824.753,975.743L824.753,1022.42L817.362,1022.42L816.454,1017.82C815.417,1019.25 814.045,1020.5 812.337,1021.58C810.63,1022.66 808.415,1023.2 805.692,1023.2ZM807.442,1015.94C810.122,1015.94 812.316,1015.04 814.023,1013.25C815.73,1011.46 816.584,1009.15 816.584,1006.35C816.584,1003.54 815.73,1001.23 814.023,999.44C812.316,997.646 810.122,996.75 807.442,996.75C804.806,996.75 802.623,997.636 800.894,999.408C799.165,1001.18 798.3,1003.47 798.3,1006.28C798.3,1009.09 799.165,1011.4 800.894,1013.22C802.623,1015.03 804.806,1015.94 807.442,1015.94Z" style="fill-rule:nonzero;"/>
            </g>
        </g>
    </g>
</svg>
